<svg width="56" height="56" viewBox="0 0 56 56" fill="none" xmlns="http://www.w3.org/2000/svg">
<g clip-path="url(#clip0_1_217)">
<rect x="0.000610352" width="55.9994" height="55.9994" fill="#F9F9F9"/>
<path d="M32.5573 27.9766H29.2946V39.9996H24.3514V27.9766H22.0004V23.7512H24.3514V21.017C24.3514 19.0617 25.2748 15.9998 29.3386 15.9998L33.0002 16.0153V20.1167H30.3435C29.9077 20.1167 29.2949 20.3357 29.2949 21.2684V23.7552H32.9892L32.5573 27.9766Z" fill="#36BA5F"/>
</g>
<defs>
<clipPath id="clip0_1_217">
<path d="M0.000610352 13.3311C0.000610352 5.96852 5.96913 0 13.3317 0H42.6689C50.0315 0 56 5.96852 56 13.3311V42.6683C56 50.0309 50.0315 55.9994 42.6689 55.9994H13.3317C5.96913 55.9994 0.000610352 50.0309 0.000610352 42.6683V13.3311Z" fill="white"/>
</clipPath>
</defs>
</svg>
