<svg xmlns="http://www.w3.org/2000/svg" enable-background="new 0 0 64 64" version="1.0" viewBox="0 0 64 64"><path d="M55.67,16c-1.25-0.01-4.46-0.31-7.19-2.81c-3.24-2.97-3.49-6.89-3.49-8.02c0-0.55-0.44-0.99-0.98-1L33.7,4.15
	c-0.55,0-1,0.45-1,1v36.57c-0.01,3.8-3.11,6.89-6.9,6.89c-3.8,0-6.9-3.1-6.9-6.9s3.1-6.9,6.9-6.9c0.67,0,1.36,0.1,2.04,0.3
	c0.3,0.09,0.63,0.03,0.88-0.16c0.25-0.19,0.4-0.49,0.4-0.8v-9.38c0-0.5-0.36-0.92-0.85-0.99c-0.94-0.14-1.87-0.21-2.78-0.21
	c-10.01,0-18.15,8.14-18.15,18.15c0,10,8.14,18.14,18.15,18.14c10.01,0,18.15-8.14,18.15-18.14v-17.5c2.69,2.57,6.3,4.05,10.09,4.05
	c0.73,0,1.43-0.05,2.08-0.16c0.49-0.08,0.84-0.5,0.84-0.99V17C56.66,16.45,56.22,16,55.67,16z M54.66,26.23
	c-0.3,0.02-0.61,0.03-0.92,0.03c-4.08,0-7.92-1.98-10.27-5.31c-0.25-0.36-0.7-0.51-1.12-0.38c-0.42,0.13-0.7,0.52-0.7,0.95v20.18
	c0,8.9-7.25,16.14-16.15,16.14c-8.91,0-16.15-7.24-16.15-16.14c0-8.91,7.25-16.15,16.15-16.15c0.53,0,1.08,0.03,1.63,0.08v7.25
	c-0.44-0.07-0.89-0.1-1.33-0.1c-4.91,0-8.9,3.99-8.9,8.9s3.99,8.9,8.9,8.9c4.89,0,8.88-3.98,8.9-8.89V6.15h7.93l0.41,0.01
	c0.17,1.95,0.92,5.61,4.09,8.51c2.66,2.44,5.71,3.11,7.53,3.28V26.23z"/></svg>