<svg xmlns="http://www.w3.org/2000/svg" viewBox="0 0 24 24"><path d="M22.789 19.001h-3.568a2.224 2.224 0 0 1-1.584-.656l-2.076-2.076a.915.915 0 0 0-1.56.646v.857a1.23 1.23 0 0 1-1.229 1.229H9.5c-2.29 0-5.968-5.144-8.651-9.459A5.658 5.658 0 0 1 0 6.553v-.255c0-.715.582-1.297 1.297-1.297H4.5a.5.5 0 0 1 .446.274c.703 1.388 2.685 5.149 3.407 5.872.184.183.361.291.473.269A.313.313 0 0 0 9 11.325V7.528c0-.529-.206-1.025-.58-1.399l-.274-.274a.499.499 0 0 1 .354-.854h4.406c.603 0 1.094.491 1.094 1.094v5.115c.277.128.773.274 1.165-.079.419-.38 1.464-2.463 2.66-5.308.21-.499.697-.822 1.241-.822h3.508c.786 0 1.426.64 1.426 1.427 0 .805-.277 1.595-.78 2.224L20 12.677v.618l3.644 3.644a1.206 1.206 0 1 1-.855 2.062zm-7.875-4c.511 0 .992.199 1.354.561l2.076 2.076c.231.231.551.363.877.363h3.568a.199.199 0 0 0 .193-.129.2.2 0 0 0-.045-.228l-3.79-3.79a.496.496 0 0 1-.147-.353v-1c0-.114.039-.224.109-.313l3.33-4.162A2.562 2.562 0 0 0 23 6.428a.427.427 0 0 0-.427-.427h-3.508a.344.344 0 0 0-.319.209c-.938 2.229-2.204 5.021-2.911 5.661-.927.839-2.122.391-2.623.038a.496.496 0 0 1-.212-.408V6.095a.094.094 0 0 0-.094-.094H9.581c.273.457.419.981.419 1.527v3.973c0 .091-.024.18-.071.257-.035.059-.361.575-.977.65-.44.056-.883-.131-1.306-.554C6.777 10.985 4.779 7.145 4.193 6H1.297A.3.3 0 0 0 1 6.298v.255c0 .874.242 1.725.699 2.461 3.446 5.543 6.435 8.987 7.801 8.987h3.271a.23.23 0 0 0 .229-.229v-.857c0-1.055.859-1.914 1.914-1.914z"/></svg>